<?xml version="1.0" encoding="iso-8859-1"?>
<!-- Generator: Adobe Illustrator 19.0.0, SVG Export Plug-In . SVG Version: 6.00 Build 0)  -->
<svg xmlns="http://www.w3.org/2000/svg" xmlns:xlink="http://www.w3.org/1999/xlink" version="1.1" id="Layer_1" x="0px" y="0px" viewBox="0 0 512 512" style="enable-background:new 0 0 512 512;" xml:space="preserve" width="512" height="512">
<g>
	<g>
		<path style="fill:#F7E477;" d="M313.595,7.5c92.223,0,166.984,65.481,166.984,146.255c0,28.952-9.607,55.938-26.178,78.649    l31.033,49.408c1.557,2.489,1.666,5.757,0,8.41c-2.322,3.697-7.202,4.812-10.899,2.49l-48.756-30.624    c-29.644,23.563-68.999,37.923-112.184,37.923c-92.223,0-166.984-65.481-166.984-146.255S221.373,7.5,313.595,7.5z"/>
		<g>
			<path style="fill:#F2BE63;" d="M176.611,153.755c0-76.345,66.791-139.017,151.984-145.662c-4.942-0.385-9.943-0.594-15-0.594     c-92.223,0-166.984,65.481-166.984,146.255S221.373,300.01,313.595,300.01c5.065,0,10.076-0.205,15.026-0.592     C243.416,292.785,176.611,230.108,176.611,153.755z"/>
		</g>
		<path style="fill:#FF9BCA;" d="M198.404,211.99c-92.223,0-166.984,65.481-166.984,146.255c0,28.952,9.607,55.938,26.178,78.649    l-31.033,49.408c-1.557,2.489-1.666,5.757,0,8.41c2.322,3.697,7.202,4.812,10.899,2.49l48.756-30.624    c29.644,23.563,68.999,37.923,112.184,37.923c92.223,0,166.984-65.481,166.984-146.255S290.627,211.99,198.404,211.99z"/>
		<g>
			<path style="fill:#EDEDED;" d="M221.714,350.025c-13.786,10.777-14.037,18.296-14.037,31.33c0,4.761-2.506,10.275-14.787,10.275     c-10.276,0-13.785-3.76-13.785-16.792c0-21.555,9.524-31.83,16.792-38.096c8.271-7.019,22.306-14.788,22.306-28.323     c0-11.529-10.024-17.042-22.556-17.042c-25.565,0-20.051,19.298-33.586,19.298c-6.767,0-15.038-4.512-15.038-14.286     c0-13.535,15.539-33.585,49.375-33.585c32.081,0,53.385,17.795,53.385,41.354C249.784,327.718,228.48,344.761,221.714,350.025z      M212.44,433.36c0,10.275-8.522,19.298-19.299,19.298s-19.048-9.023-19.048-19.298c0-10.526,8.522-19.298,19.048-19.298     C203.668,414.062,212.44,422.834,212.44,433.36z"/>
		</g>
	</g>
	<g>
		<path d="M227.088,128.2v14.295c0,4.142,3.358,7.5,7.5,7.5s7.5-3.358,7.5-7.5V128.2c0-4.142-3.358-7.5-7.5-7.5    S227.088,124.058,227.088,128.2z"/>
		<path d="M385.055,128.2v14.295c0,4.142,3.358,7.5,7.5,7.5s7.5-3.358,7.5-7.5V128.2c0-4.142-3.358-7.5-7.5-7.5    S385.055,124.058,385.055,128.2z"/>
		<path d="M327.419,136.564c-3.367,3.852-8.415,6.061-13.848,6.061c-5.434,0-10.48-2.209-13.847-6.061    c-2.726-3.119-7.465-3.437-10.583-0.711c-3.119,2.726-3.438,7.464-0.711,10.583c6.215,7.111,15.379,11.189,25.141,11.189    c9.762,0,18.925-4.078,25.141-11.188c2.727-3.119,2.408-7.857-0.71-10.583S330.145,133.445,327.419,136.564z"/>
		<path d="M193.116,406.562c-14.639,0-26.548,12.022-26.548,26.798c0,14.777,11.909,26.799,26.548,26.799    c14.777,0,26.799-12.022,26.799-26.799C219.916,418.584,207.894,406.562,193.116,406.562z M193.116,445.159    c-6.368,0-11.548-5.293-11.548-11.799c0-6.505,5.18-11.798,11.548-11.798c6.396,0,11.799,5.403,11.799,11.798    S199.512,445.159,193.116,445.159z"/>
		<path d="M226.295,355.945c14.126-10.988,30.966-28.893,30.966-51.788c0-28.308-25.606-48.854-60.885-48.854    c-21.4,0-34.735,7.306-42.153,13.435c-9.219,7.617-14.722,17.953-14.722,27.65c0,6.692,2.761,12.604,7.773,16.647    c4.05,3.266,9.432,5.139,14.765,5.139c9.676,0,14.033-6.425,16.917-10.676c3.395-5.005,5.847-8.622,16.669-8.622    c4.527,0,15.056,0.93,15.056,9.542c0,7.376-7.325,13.001-14.409,18.441c-1.854,1.424-3.606,2.769-5.293,4.202    c-8.326,7.178-19.396,19.524-19.396,43.777c0,11.31,2.419,24.292,21.285,24.292c20.68,0,22.287-13.605,22.287-17.775    C215.153,369.202,215.153,364.655,226.295,355.945z M200.153,381.354c0,1.069-0.26,1.307-0.345,1.384    c-0.703,0.642-2.942,1.391-6.941,1.391c-3.396,0-4.746-0.527-5.008-0.838c-0.299-0.356-1.277-2.019-1.277-8.455    c0-17.786,7.173-26.367,14.146-32.378c1.364-1.157,2.974-2.394,4.679-3.703c8.556-6.57,20.273-15.567,20.273-30.338    c0-14.909-11.798-24.542-30.056-24.542c-18.773,0-24.978,9.149-29.083,15.203c-2.777,4.095-3.108,4.095-4.502,4.095    c-0.075,0-7.538-0.078-7.538-6.786c0-9.096,12.283-26.085,41.875-26.085c27.017,0,45.885,13.921,45.885,33.854    c0,9.291-4.368,23.763-25.19,39.959C200.153,357.342,200.153,368.47,200.153,381.354z"/>
		<path d="M29.819,505.465c3.864,0.883,8.059,0.319,11.611-1.912l44.333-27.846C117.223,499.146,156.994,512,198.38,512    c96.211,0,174.484-68.974,174.484-153.755c0-19.91-4.318-38.947-12.17-56.425c23.988-5.921,46.384-16.372,65.494-30.604    l44.333,27.846c3.485,2.189,7.614,2.89,11.625,1.973c4.012-0.917,7.426-3.34,9.614-6.824c3.121-4.968,3.124-11.396,0-16.389    l-28.378-45.182c16.158-23.79,24.673-50.958,24.673-78.886c0-40.511-17.722-78.745-49.902-107.658    c-3.082-2.768-7.823-2.515-10.592,0.566c-2.768,3.082-2.515,7.823,0.566,10.592c28.972,26.03,44.928,60.301,44.928,96.5    c0,26.381-8.554,52.049-24.737,74.229c-1.809,2.479-1.925,5.811-0.292,8.41l31.026,49.396c0.014,0.023,0.138,0.233,0.007,0.442    c-0.024,0.039-0.089,0.143-0.253,0.18c-0.166,0.037-0.268-0.027-0.306-0.052l-48.756-30.624c-2.696-1.693-6.165-1.5-8.656,0.48    c-19.198,15.26-42.41,26.216-67.414,31.86c-13.977-24-34.854-44.338-60.687-59.052c-34.216-19.489-74.569-27.327-113.666-23.613    c-4.361,0.419-8.702,0.974-13.008,1.679c-8.117-16.9-12.228-34.817-12.228-53.335C154.087,77.246,225.631,15,313.571,15    c32.877,0,64.453,8.648,91.315,25.009c3.539,2.155,8.152,1.034,10.307-2.504s1.034-8.152-2.504-10.307    C383.476,9.405,349.202,0,313.571,0C217.36,0,139.087,68.975,139.087,153.755c0,19.567,4.091,38.513,12.153,56.459    c-32.363,8.002-61.766,24.153-84.331,46.919c-2.916,2.942-2.895,7.69,0.047,10.606c2.941,2.916,7.69,2.896,10.606-0.047    c31.575-31.855,76.334-48.203,120.818-48.203c56.806,0,115.565,27.87,143.735,78.655c10.091,18.194,15.75,38.583,15.75,60.101    C357.864,434.755,286.32,497,198.38,497c-39.89,0-78.074-12.889-107.517-36.293c-2.492-1.98-5.961-2.173-8.656-0.48    c0,0-48.633,30.546-48.756,30.623c-0.353,0.221-0.781-0.203-0.559-0.559l31.033-49.407c1.632-2.599,1.517-5.931-0.292-8.41    c-16.183-22.18-24.737-47.848-24.737-74.229c0-23.959,7.143-47.581,20.656-68.311c2.262-3.47,1.282-8.117-2.188-10.379    c-3.47-2.262-8.117-1.283-10.379,2.188c-15.105,23.173-23.09,49.627-23.09,76.502c0,27.928,8.515,55.096,24.673,78.886    c0,0-28.317,45.084-28.386,45.193C14.628,491.167,19.72,503.158,29.819,505.465z"/>
	</g>
</g>















</svg>
