<svg id="Capa_1" enable-background="new 0 0 512 512" height="512" viewBox="0 0 512 512" width="512" xmlns="http://www.w3.org/2000/svg"><g><g><path d="m190.406 364.135 37.238 78.918-37.238 61.447h-90.37c0-115.713 76.861-140.365 76.861-140.365z" fill="#ffa875"/><path d="m411.964 504.5h-90.36l-26.229-56.462 26.229-83.903h14.242s76.118 24.652 76.118 140.365z" fill="#ffa875"/><path d="m190.406 364.135h131.198v140.365h-131.198z" fill="#81ddfd"/><path d="m49.752 213.748c0-113.726 92.523-206.248 206.248-206.248s206.248 92.522 206.248 206.248z" fill="#827f98"/><path d="m85.764 213.748h-36.012c0 22.486-4.136 40.345-8.553 53.005-5.846 16.758.571 35.349 15.586 44.814 17.037 10.74 42.776 21.261 78.236 21.261z" fill="#77718c"/><path d="m426.236 213.748h36.012c0 22.486 4.136 40.345 8.553 53.005 5.846 16.758-.571 35.349-15.586 44.814-17.037 10.74-42.776 21.261-78.236 21.261z" fill="#827f98"/><path d="m125.021 205.353c0-80.483 39.447-151.744 100.052-195.534-99.107 14.967-175.321 100.713-175.321 203.928h75.43c-.095-2.788-.161-5.583-.161-8.394z" fill="#77718c"/><circle cx="428.293" cy="215.806" fill="#ffcabd" r="40.322"/><path d="m190.406 364.135v28.182c0 18.114 14.684 32.797 32.797 32.797 18.114 0 32.797-14.684 32.797-32.797v-28.182z" fill="#fff"/><path d="m321.596 364.135v28.182c0 18.114-14.684 32.797-32.797 32.797-18.114 0-32.797-14.684-32.797-32.797v-28.182z" fill="#fff"/><path d="m192.727 369.053-2.321-4.918h-13.51s-76.861 24.653-76.861 140.365h16.454c5.606-55.232 34.284-103.637 76.238-135.447z" fill="#ff995d"/><path d="m422.464 177.976c-3.42-15.971-18.398-26.698-34.609-24.703-108.94 13.406-179.913-24.965-217.296-54.884-13.091-10.477-32.175-8.836-43.166 3.826-25.931 29.873-41.628 68.868-41.628 111.531 0 93.931 78.318 171.31 172.243 170.225 93.094-1.076 168.228-76.876 168.228-170.224 0-12.271-1.302-24.237-3.772-35.771z" fill="#ffdcce"/><path d="m190.668 370.695c-40.695-43.165-65.647-101.337-65.647-165.342 0-41.134 10.312-79.854 28.476-113.737-9.579-.778-19.363 2.834-26.104 10.6-18.04 20.782-31.118 45.981-37.413 73.756-2.045-.319-4.139-.488-6.273-.488-22.269 0-40.322 18.053-40.322 40.322s18.053 40.322 40.322 40.322c2.505 0 4.952-.24 7.33-.677 13.352 51.911 50.939 94.645 99.631 115.244z" fill="#ffcabd"/><g><g><g><ellipse cx="155.224" cy="248.012" fill="#ffa0ab" rx="37.184" ry="29.612"/></g><g><ellipse cx="356.776" cy="248.012" fill="#ffa0ab" rx="37.184" ry="29.612"/></g></g></g></g><g><path d="m176.895 196.806c-4.142 0-7.5 3.358-7.5 7.5v15.201c0 4.142 3.358 7.5 7.5 7.5s7.5-3.358 7.5-7.5v-15.201c0-4.141-3.358-7.5-7.5-7.5z"/><path d="m335.105 196.806c-4.142 0-7.5 3.358-7.5 7.5v15.201c0 4.142 3.358 7.5 7.5 7.5s7.5-3.358 7.5-7.5v-15.201c0-4.141-3.358-7.5-7.5-7.5z"/><path d="m281.783 213.4c-3.122-2.721-7.86-2.396-10.582.727-3.837 4.403-9.378 6.928-15.201 6.928s-11.364-2.525-15.201-6.928c-2.721-3.123-7.459-3.448-10.582-.727s-3.448 7.458-.727 10.582c6.687 7.673 16.349 12.074 26.51 12.074s19.823-4.401 26.51-12.074c2.721-3.123 2.396-7.86-.727-10.582z"/><circle cx="256" cy="446.017" r="7.258"/><circle cx="256" cy="476.066" r="7.258"/><path d="m468.399 189.806c-5.708-50.937-29.671-98.17-67.638-133.177-3.045-2.808-7.79-2.616-10.598.43-2.808 3.045-2.616 7.79.43 10.598 30.809 28.408 51.711 65.458 60.063 105.896-7.023-3.732-15.108-5.757-23.667-5.55-7.06-15.24-23.085-24.26-40.05-22.173-76.246 9.383-152.219-5.695-211.694-53.295-6.127-4.904-13.263-7.674-20.509-8.391-21.154-2.094-33.124 13.244-33.024 13.176-18.122 20.889-30.781 45.477-37.488 70.668-7.333-.119-15.559 1.674-22.884 5.567 8.45-40.966 29.745-78.386 61.183-106.935 36.656-33.288 84.059-51.62 133.477-51.62 40.285 0 79.105 12.043 112.264 34.828 3.415 2.346 8.084 1.479 10.429-1.934 2.346-3.414 1.479-8.083-1.934-10.429-35.67-24.51-77.428-37.465-120.759-37.465-53.155 0-104.139 19.715-143.561 55.515-38.675 35.121-63.064 82.75-68.838 134.292-4.873 7.491-7.716 16.417-7.716 25.999 0 7.469 1.724 14.541 4.79 20.845-1.35 9.709-3.545 18.998-6.557 27.632-7.048 20.204.628 42.257 18.667 53.629 22.458 14.157 49.742 21.849 79.076 22.366 8.98 8.813 18.692 16.559 28.987 23.188-9.949 5.733-23.803 15.855-36.478 32.613-2.499 3.304-1.846 8.007 1.458 10.506s8.008 1.846 10.506-1.458c10.253-13.556 21.341-22.03 28.837-26.75 4.76-2.999 8.715-4.907 11.199-5.982 2.158 1.1 4.338 2.149 6.536 3.157v16.765 104.683h-30.086v-41.462c0-4.142-3.358-7.5-7.5-7.5s-7.5 3.358-7.5 7.5v41.462h-30.17c.787-25.6 5.636-48.375 14.444-67.79 1.711-3.772.041-8.217-3.731-9.929-3.77-1.711-8.217-.041-9.929 3.731-10.549 23.25-15.898 50.667-15.898 81.487 0 4.142 3.358 7.5 7.5 7.5h311.928c4.142 0 7.5-3.358 7.5-7.5 0-62.196-21.777-98.857-40.046-118.66-9.948-10.784-19.928-17.88-27.586-22.338 10.341-6.644 20.05-14.419 28.988-23.241 29.073-.622 56.123-8.308 78.395-22.349 18.039-11.372 25.716-33.425 18.668-53.629-3.012-8.633-5.207-17.922-6.557-27.632 3.066-6.304 4.79-13.376 4.79-20.845-.001-9.582-2.844-18.509-7.717-25.999zm-38.056 58.753c2.243-11.347 3.393-22.993 3.393-34.812 0-.067-.003-.134-.003-.202-.013-10.243-.946-20.689-2.634-30.426 17.22 1.486 30.016 15.964 30.016 32.686 0 17.173-13.383 31.671-30.772 32.754zm-97.408 108.663c-1.357.567-1.515 1.068-14.23 6.734h-.001c-20.366 8.516-41.555 12.542-62.938 12.513-22.225-.044-43.272-4.641-62.425-12.787-59.442-25.268-100.076-84.072-100.076-149.936 0 0 0 0 0-.001 0-66.569 40.551-107.487 39.797-106.62 8.402-9.674 22.858-10.848 32.811-2.881 62.784 50.247 142.436 66.374 222.899 56.472 12.565-1.541 23.786 6.813 26.358 18.83 2.393 11.172 3.605 22.679 3.605 34.201.001 61.793-34.653 115.971-85.8 143.475zm-69.434 34.106c17.034-.684 34.337-3.919 50.595-9.525v10.514c0 13.949-11.348 25.297-25.297 25.297s-25.297-11.348-25.297-25.297v-.989zm-212.617-175.522c0-16.88 12.914-31.192 30.02-32.687-1.682 9.678-2.64 20.138-2.64 30.628 0 11.812 1.171 23.458 3.456 34.812-17.292-1.039-30.836-15.434-30.836-32.753zm-2.603 53.417c1.875-5.375 3.466-10.966 4.765-16.729 9.319 7.785 21.053 11.534 32.415 11.098 6.5 21.984 17.306 42.586 32.003 60.812-21.027-2.264-40.032-8.688-56.679-19.183-12.096-7.624-17.238-22.428-12.504-35.998zm200.22 122.09v1.003c0 13.949-11.348 25.297-25.297 25.297s-25.297-11.348-25.297-25.297v-10.705c16.77 5.885 33.866 8.998 50.594 9.702zm-50.595 32.34c6.921 5.599 15.722 8.961 25.297 8.961 13.512 0 25.483-6.691 32.797-16.927 7.315 10.236 19.285 16.927 32.797 16.927 9.579 0 18.383-3.365 25.306-8.968v73.354h-116.197zm206.445 73.347h-30.168v-41.462c0-4.142-3.358-7.5-7.5-7.5s-7.5 3.358-7.5 7.5v41.462h-30.079v-121.153c2.431-1.098 4.836-2.255 7.217-3.463 12.783 5.6 65.266 34.082 68.03 124.616zm46.865-191.778c-16.474 10.386-35.273 16.786-56.061 19.109 14.472-18.146 25.116-38.729 31.513-60.733 11.501.402 23.095-3.423 32.287-11.104 1.299 5.764 2.89 11.354 4.765 16.729 4.733 13.571-.408 28.374-12.504 35.999z"/></g></g></svg>